<svg width="134" height="34" viewBox="0 0 134 34" fill="none" xmlns="http://www.w3.org/2000/svg">
<path d="M19.0911 0.35376L34.8799 25.3231H3.30228L19.0911 0.35376Z" fill="#931A21"/>
<path d="M2.35715 26.4238H133.853" stroke="#931A21" stroke-width="0.7"/>
<path d="M125.519 24.0376V17.4905H133.6V18.1938H127.141V20.406H133.182V21.1093H127.141V23.3343H133.705V24.0376H125.519Z" fill="#3D4C5E"/>
<path d="M122.048 19.5365H120.554C120.465 19.3085 120.311 19.1081 120.09 18.9355C119.873 18.7629 119.608 18.6179 119.294 18.5007C118.985 18.3814 118.641 18.2919 118.264 18.2322C117.886 18.1725 117.492 18.1427 117.083 18.1427C116.335 18.1427 115.658 18.2428 115.052 18.4432C114.449 18.6435 113.969 18.9387 113.611 19.3287C113.258 19.7187 113.081 20.1972 113.081 20.7641C113.081 21.331 113.258 21.8095 113.611 22.1995C113.969 22.5895 114.449 22.8847 115.052 23.085C115.658 23.2854 116.335 23.3855 117.083 23.3855C117.492 23.3855 117.886 23.3557 118.264 23.296C118.641 23.2363 118.985 23.1479 119.294 23.0307C119.608 22.9113 119.873 22.7653 120.09 22.5927C120.311 22.4179 120.465 22.2176 120.554 21.9917H122.048C121.936 22.3263 121.731 22.6257 121.433 22.89C121.136 23.1543 120.767 23.3791 120.325 23.5645C119.883 23.7478 119.387 23.8874 118.836 23.9833C118.29 24.0792 117.705 24.1272 117.083 24.1272C116.03 24.1272 115.094 23.9908 114.274 23.718C113.455 23.4452 112.81 23.0573 112.34 22.5543C111.87 22.0514 111.635 21.4546 111.635 20.7641C111.635 20.0736 111.87 19.4768 112.34 18.9739C112.81 18.4709 113.455 18.083 114.274 17.8102C115.094 17.5374 116.03 17.401 117.083 17.401C117.705 17.401 118.29 17.449 118.836 17.5449C119.387 17.6408 119.883 17.7814 120.325 17.9668C120.767 18.1501 121.136 18.3739 121.433 18.6382C121.731 18.9003 121.936 19.1998 122.048 19.5365Z" fill="#3D4C5E"/>
<path d="M100.297 24.0376H98.7299L103.262 17.4905H104.804L109.336 24.0376H107.769L104.081 18.5263H103.985L100.297 24.0376ZM100.875 21.4802H107.191V22.1835H100.875V21.4802Z" fill="#3D4C5E"/>
<path d="M88.8384 24.0376V17.4905H93.2615C94.2884 17.4905 95.1279 17.5832 95.7798 17.7686C96.436 17.9519 96.9218 18.2002 97.2371 18.5135C97.5524 18.8268 97.7101 19.1763 97.7101 19.562C97.7101 19.9478 97.5524 20.2984 97.2371 20.6138C96.9261 20.9292 96.4446 21.1807 95.7926 21.3683C95.1406 21.5537 94.3055 21.6464 93.2871 21.6464H90.1168V20.9431H93.2359C93.939 20.9431 94.5036 20.8823 94.9297 20.7609C95.3558 20.6394 95.6648 20.4753 95.8565 20.2685C96.0525 20.0597 96.1505 19.8242 96.1505 19.562C96.1505 19.2999 96.0525 19.0655 95.8565 18.8587C95.6648 18.652 95.3537 18.49 94.9233 18.3728C94.493 18.2535 93.922 18.1938 93.2104 18.1938H90.4236V24.0376H88.8384Z" fill="#3D4C5E"/>
<path d="M82.5548 19.1273C82.4825 18.8034 82.1893 18.5519 81.675 18.3728C81.1608 18.1938 80.5301 18.1043 79.7828 18.1043C79.2364 18.1043 78.7584 18.1512 78.3486 18.245C77.9428 18.3387 77.6254 18.4677 77.3965 18.6318C77.1715 18.7959 77.059 18.9824 77.059 19.1912C77.059 19.366 77.1373 19.5163 77.294 19.642C77.4547 19.7656 77.6596 19.869 77.9087 19.9521C78.1578 20.0331 78.4189 20.1002 78.6921 20.1535C78.9653 20.2046 79.2163 20.2462 79.4453 20.2782L80.6988 20.4572C81.0202 20.502 81.3777 20.5638 81.7714 20.6426C82.1692 20.7215 82.5488 20.8291 82.9104 20.9655C83.276 21.0998 83.5773 21.2724 83.8143 21.4834C84.0514 21.6944 84.1699 21.9533 84.1699 22.2602C84.1699 22.614 83.9951 22.9337 83.6456 23.2193C83.3001 23.5049 82.7939 23.7318 82.127 23.9002C81.4641 24.0686 80.6586 24.1528 79.7105 24.1528C78.8267 24.1528 78.0613 24.0771 77.4145 23.9258C76.7717 23.7745 76.2655 23.5635 75.8959 23.2928C75.5303 23.0221 75.3234 22.7078 75.2752 22.3497H76.8179C76.8581 22.597 77.0148 22.8016 77.288 22.9635C77.5652 23.1234 77.9147 23.2427 78.3365 23.3216C78.7624 23.3983 79.2204 23.4367 79.7105 23.4367C80.281 23.4367 80.7932 23.3877 81.2472 23.2896C81.7011 23.1894 82.0607 23.0509 82.3259 22.874C82.591 22.695 82.7236 22.4861 82.7236 22.2474C82.7236 22.0301 82.6091 21.8532 82.3801 21.7168C82.1511 21.5804 81.8498 21.4695 81.4762 21.3843C81.1025 21.299 80.6988 21.2244 80.2649 21.1605L78.7463 20.9303C77.7821 20.7833 77.0188 20.5734 76.4564 20.3006C75.8939 20.0278 75.6127 19.6708 75.6127 19.2296C75.6127 18.863 75.7995 18.5433 76.1731 18.2705C76.5508 17.9956 77.057 17.7825 77.6917 17.6312C78.3305 17.4777 79.0436 17.401 79.831 17.401C80.6265 17.401 81.3335 17.4767 81.9522 17.628C82.5709 17.7772 83.061 17.9818 83.4226 18.2418C83.7882 18.5018 83.981 18.797 84.0011 19.1273H82.5548Z" fill="#3D4C5E"/>
<path d="M71.904 20.7641C71.904 21.4546 71.6689 22.0514 71.1989 22.5543C70.7288 23.0573 70.084 23.4452 69.2645 23.718C68.4449 23.9908 67.5089 24.1272 66.4563 24.1272C65.4037 24.1272 64.4677 23.9908 63.6481 23.718C62.8285 23.4452 62.1837 23.0573 61.7137 22.5543C61.2437 22.0514 61.0086 21.4546 61.0086 20.7641C61.0086 20.0736 61.2437 19.4768 61.7137 18.9739C62.1837 18.4709 62.8285 18.083 63.6481 17.8102C64.4677 17.5374 65.4037 17.401 66.4563 17.401C67.5089 17.401 68.4449 17.5374 69.2645 17.8102C70.084 18.083 70.7288 18.4709 71.1989 18.9739C71.6689 19.4768 71.904 20.0736 71.904 20.7641ZM70.4577 20.7641C70.4577 20.1972 70.2789 19.7187 69.9213 19.3287C69.5678 18.9387 69.0877 18.6435 68.4811 18.4432C67.8785 18.2428 67.2035 18.1427 66.4563 18.1427C65.709 18.1427 65.0321 18.2428 64.4255 18.4432C63.8229 18.6435 63.3428 18.9387 62.9852 19.3287C62.6317 19.7187 62.4549 20.1972 62.4549 20.7641C62.4549 21.331 62.6317 21.8095 62.9852 22.1995C63.3428 22.5895 63.8229 22.8847 64.4255 23.085C65.0321 23.2854 65.709 23.3855 66.4563 23.3855C67.2035 23.3855 67.8785 23.2854 68.4811 23.085C69.0877 22.8847 69.5678 22.5895 69.9213 22.1995C70.2789 21.8095 70.4577 21.331 70.4577 20.7641Z" fill="#3D4C5E"/>
<path d="M48.7865 24.0376V17.4905H53.1743C54.1889 17.4905 55.0216 17.5779 55.6726 17.7526C56.3236 17.9253 56.8055 18.1629 57.1183 18.4655C57.4311 18.7682 57.5875 19.1124 57.5875 19.4981C57.5875 19.8839 57.4311 20.2259 57.1183 20.5243C56.8055 20.8227 56.3257 21.0571 55.679 21.2276C55.0322 21.396 54.2058 21.4802 53.1997 21.4802H49.6488V20.7641H53.149C53.8422 20.7641 54.4002 20.7129 54.8229 20.6106C55.2499 20.5083 55.5585 20.3634 55.7487 20.1758C55.9432 19.9862 56.0404 19.7602 56.0404 19.4981C56.0404 19.236 55.9432 19.0069 55.7487 18.8108C55.5543 18.6147 55.2436 18.4634 54.8166 18.3568C54.3897 18.2481 53.8253 18.1938 53.1236 18.1938H50.359V24.0376H48.7865ZM54.899 21.0965L58.0948 24.0376H56.2687L53.1236 21.0965H54.899Z" fill="#3D4C5E"/>
<path d="M36.7916 24.0376V17.4905H44.2399V18.1938H38.2861V20.406H43.8542V21.1093H38.2861V23.3343H44.3363V24.0376H36.7916Z" fill="#3D4C5E"/>
<path d="M24.1325 24.0376H22.5657L27.0974 17.4905H28.6401L33.1717 24.0376H31.6049L27.9169 18.5263H27.8205L24.1325 24.0376ZM24.711 21.4802H31.0264V22.1835H24.711V21.4802Z" fill="#EFF5F9"/>
<path d="M102.386 15.4666V8.49878H109.944V9.24727H103.902V11.6016H109.552V12.3501H103.902V14.7181H110.041V15.4666H102.386Z" fill="#3D4C5E"/>
<path d="M90.978 15.4666V8.49878H92.4945V14.7181H98.3157V15.4666H90.978Z" fill="#3D4C5E"/>
<path d="M86.8054 10.6761H85.289C85.1993 10.4334 85.0424 10.2202 84.8182 10.0365C84.598 9.85279 84.329 9.69856 84.011 9.57381C83.6971 9.44679 83.3486 9.35153 82.9654 9.28802C82.5822 9.22451 82.1827 9.19276 81.7669 9.19276C81.0087 9.19276 80.3218 9.29936 79.7063 9.51257C79.0948 9.72578 78.6077 10.0399 78.2449 10.455C77.8861 10.8701 77.7068 11.3793 77.7068 11.9826C77.7068 12.5859 77.8861 13.0951 78.2449 13.5102C78.6077 13.9253 79.0948 14.2394 79.7063 14.4526C80.3218 14.6658 81.0087 14.7724 81.7669 14.7724C82.1827 14.7724 82.5822 14.7407 82.9654 14.6772C83.3486 14.6137 83.6971 14.5195 84.011 14.3948C84.329 14.2678 84.598 14.1124 84.8182 13.9287C85.0424 13.7427 85.1993 13.5295 85.289 13.289H86.8054C86.6913 13.6451 86.4834 13.9638 86.1817 14.2451C85.8801 14.5263 85.505 14.7656 85.0566 14.9629C84.6082 15.158 84.1048 15.3066 83.5463 15.4086C82.9919 15.5107 82.3988 15.5617 81.7669 15.5617C80.6989 15.5617 79.7491 15.4166 78.9175 15.1263C78.0859 14.8359 77.4316 14.4231 76.9546 13.8878C76.4777 13.3526 76.2392 12.7175 76.2392 11.9826C76.2392 11.2477 76.4777 10.6126 76.9546 10.0773C77.4316 9.54206 78.0859 9.12925 78.9175 8.83893C79.7491 8.5486 80.6989 8.40344 81.7669 8.40344C82.3988 8.40344 82.9919 8.45448 83.5463 8.55654C84.1048 8.65861 84.6082 8.80831 85.0566 9.00564C85.505 9.2007 85.8801 9.43886 86.1817 9.72011C86.4834 9.99909 86.6913 10.3178 86.8054 10.6761Z" fill="#3D4C5E"/>
<path d="M65.3237 15.4666H63.7339L68.3322 8.49878H69.8975L74.4958 15.4666H72.906L69.1638 9.6011H69.0659L65.3237 15.4666ZM65.9107 12.7448H72.319V13.4933H65.9107V12.7448Z" fill="#3D4C5E"/>
<path d="M60.5999 8.49878V15.4666H59.1323L52.3083 9.99576H52.186V15.4666H50.6696V8.49878H52.1371L58.9856 13.9832H59.1079V8.49878H60.5999Z" fill="#3D4C5E"/>
<path d="M45.7318 8.49878V15.4666H44.2643L37.4403 9.99576H37.318V15.4666H35.8015V8.49878H37.2691L44.1175 13.9832H44.2398V8.49878H45.7318Z" fill="#3D4C5E"/>
<path d="M30.7352 8.49878V15.4666H29.2187V8.49878H30.7352Z" fill="#3D4C5E"/>
<path d="M15.6544 15.4666V8.49878H20.3433C21.4319 8.49878 22.3218 8.59744 23.0129 8.79477C23.7086 8.98984 24.2236 9.25408 24.5578 9.58749C24.8921 9.92091 25.0592 10.2929 25.0592 10.7034C25.0592 11.114 24.8921 11.4871 24.5578 11.8228C24.2281 12.1584 23.7176 12.4261 23.0265 12.6257C22.3354 12.823 21.45 12.9217 20.3704 12.9217H17.0096V12.1732H20.3162C21.0615 12.1732 21.66 12.1085 22.1118 11.9793C22.5635 11.85 22.891 11.6753 23.0943 11.4553C23.3021 11.233 23.4059 10.9824 23.4059 10.7034C23.4059 10.4244 23.3021 10.1749 23.0943 9.95493C22.891 9.73492 22.5612 9.56254 22.105 9.4378C21.6488 9.31078 21.0434 9.24727 20.2891 9.24727H17.3348V15.4666H15.6544Z" fill="#EFF5F9"/>
</svg>
